<svg width="150" height="35" viewBox="0 0 150 35" fill="none" xmlns="http://www.w3.org/2000/svg">
<mask id="mask0_844_34" style="mask-type:luminance" maskUnits="userSpaceOnUse" x="0" y="0" width="151" height="21">
<path d="M0.927734 0.014481V0.217222C1.56492 0.217222 2.28417 0.072409 2.28417 0.936476V19.2846C2.28417 20.1487 1.56492 20.0039 0.927734 20.0039V20.2066H14.1108L14.7721 16.3111H14.3377C13.7584 19.6273 12.4937 19.7722 11.2241 19.7722H5.31082C4.90534 19.7432 4.59157 19.6563 4.59157 19.2798V0.931644C4.59157 0.0675771 5.31082 0.212397 5.94801 0.212397V0.00964907H0.927734V0.014481ZM34.6456 0.014481V0.217222C35.2828 0.217222 36.0021 0.072409 36.0021 0.936476V12.5024C36.0021 16.1952 33.2892 19.5115 29.7991 19.5115C25.5029 19.5115 23.6541 16.2821 23.6541 12.5024V0.936476C23.6541 0.072409 24.3734 0.217222 25.0106 0.217222V0.014481H19.9903V0.217222C20.6275 0.217222 21.3467 0.072409 21.3467 0.936476V12.5024C21.3467 17.7254 24.7209 20.5204 29.2199 20.5204C32.652 20.5204 36.4317 17.5517 36.4317 12.5024V0.936476C36.4317 0.072409 37.151 0.217222 37.7881 0.217222V0.014481H34.6456ZM63.5508 0.014481L56.0783 14.2643C55.7598 14.7857 55.4701 14.8146 55.0984 14.2064L47.6549 0.014481H44.1359V0.217222C44.7731 0.217222 45.4923 0.072409 45.4923 0.936476V19.2846C45.4923 20.1487 44.7731 20.0039 44.1359 20.0039V20.2066H47.2784V20.0039C46.6412 20.0039 45.922 20.1487 45.922 19.2846V2.43773C45.922 1.8633 46.2116 1.71847 46.4964 2.23498L54.4564 17.3489L54.4275 17.3779H54.8619L62.8509 2.1481C63.1405 1.65572 63.5412 1.8295 63.5412 2.3798V19.2846C63.5412 20.1487 62.8219 20.0039 62.1847 20.0039V20.2066H67.205V20.0039C66.5678 20.0039 65.8486 20.1487 65.8486 19.2846V0.936476C65.8486 0.072409 66.5678 0.217222 67.205 0.217222V0.014481H63.5412H63.5508ZM74.1369 0.014481V0.217222C74.774 0.217222 75.4933 0.072409 75.4933 0.936476V19.2846C75.4933 20.1487 74.774 20.0039 74.1369 20.0039V20.2066H79.1571V20.0039C78.52 20.0039 77.8007 20.1487 77.8007 19.2846V0.936476C77.8007 0.072409 78.52 0.217222 79.1571 0.217222V0.014481H74.1369ZM101.628 0.014481V0.217222C102.26 0.217222 102.984 0.072409 102.984 0.936476V17.262L89.4535 0.00964907H86.0793V0.212397C86.7165 0.212397 87.4358 0.0675771 87.4358 0.931644V19.2798C87.4358 20.1439 86.7165 19.999 86.0793 19.999V20.2018H89.2218V19.999C88.5846 19.999 87.8654 20.1439 87.8654 19.2798V0.931644L102.979 20.2018H103.414V0.931644C103.414 0.0675771 104.133 0.212397 104.77 0.212397V0.00964907H101.628V0.014481ZM119.223 3.01699L123.089 12.9996H115.39L119.228 3.01699H119.223ZM120.376 0.014481L117.49 0.680635V0.825445C118.122 0.825445 118.325 0.82545 118.586 1.313L119.02 2.43773L112.445 19.5453C112.098 20.1197 111.523 20.0087 110.944 20.0087L110.857 20.2114H114.84L114.927 20.0087C113.773 20.0087 112.735 20.1535 112.938 19.4005L115.216 13.4292H123.234L125.542 19.4005C125.715 20.1197 124.706 20.0087 123.553 20.0087L123.64 20.2114H129.495L129.408 20.0087C128.829 20.0087 128.254 20.1245 127.907 19.5453L120.405 0.014481H120.376ZM135.577 0.014481V0.217222C136.214 0.217222 136.934 0.072409 136.934 0.936476V19.2846C136.934 20.1487 136.214 20.0039 135.577 20.0039V20.2066H149.335L150.001 16.3111H149.566C148.987 19.6273 147.718 19.7722 146.453 19.7722H139.96C139.555 19.7432 139.241 19.6563 139.241 19.2798V9.64472C139.241 9.2682 139.56 9.18131 139.96 9.15234H143.219C144.662 9.15234 144.807 9.8716 144.807 11.0832H145.01V6.81599H144.807C144.807 8.02761 144.662 8.7179 143.219 8.7179H139.96C139.555 8.68894 139.241 8.60205 139.241 8.22553V0.926819C139.241 0.550299 139.56 0.463407 139.96 0.434444H145.874C147.143 0.434444 148.413 0.579259 148.987 3.89554H149.422L148.76 0H135.577V0.014481Z" fill="white"/>
</mask>
<g mask="url(#mask0_844_34)">
<path d="M-12.7076 -96.7424L-62.0801 -11.2267L122.671 95.4396L172.044 9.92398L-12.7076 -96.7424Z" fill="#997D49"/>
<mask id="mask1_844_34" style="mask-type:luminance" maskUnits="userSpaceOnUse" x="-42" y="-88" width="212" height="174">
<g clip-path="url(#clip0_844_34)">
<rect width="210.654" height="172.973" transform="translate(-41.4766 -87.8935)" fill="white"/>
<path d="M38.1953 -64.5374L-7.95508 15.3973L112.731 85.0754L158.881 5.14067L38.1953 -64.5374Z" fill="url(#paint0_linear_844_34)"/>
</g>
</mask>
<g mask="url(#mask1_844_34)">
<mask id="mask2_844_34" style="mask-type:luminance" maskUnits="userSpaceOnUse" x="-42" y="-88" width="212" height="143">
<path d="M169.177 -87.8935H-41.4766V54.9478H169.177V-87.8935Z" fill="white"/>
</mask>
<g mask="url(#mask2_844_34)">
<path d="M-21.0225 -82.7951L-37.4688 -54.3094L147.283 52.357L163.729 23.8713L-21.0225 -82.7951Z" fill="#C5AE67"/>
</g>
</g>
<mask id="mask3_844_34" style="mask-type:luminance" maskUnits="userSpaceOnUse" x="-60" y="-65" width="219" height="152">
<g clip-path="url(#clip1_844_34)">
<rect width="218.063" height="150.603" transform="translate(-59.1816 -64.5349)" fill="white"/>
<path d="M38.1972 -64.5374L-7.95312 15.3973L112.733 85.0754L158.883 5.14067L38.1972 -64.5374Z" fill="url(#paint1_linear_844_34)"/>
</g>
</mask>
<g mask="url(#mask3_844_34)">
<mask id="mask4_844_34" style="mask-type:luminance" maskUnits="userSpaceOnUse" x="-60" y="-57" width="212" height="144">
<path d="M151.472 -56.7726H-59.1816V86.0687H151.472V-56.7726Z" fill="white"/>
</mask>
<g mask="url(#mask4_844_34)">
<path d="M-37.2803 -54.1808L-53.7266 -25.6951L131.025 80.9713L147.471 52.4856L-37.2803 -54.1808Z" fill="#C5AE67"/>
</g>
</g>
</g>
<mask id="mask5_844_34" style="mask-type:luminance" maskUnits="userSpaceOnUse" x="0" y="27" width="151" height="8">
<path d="M69.6424 29.3879L67.8709 33.3462L66.0993 29.3879H65.4235V34.1765H66.051V30.5996L67.6488 34.1765H68.0929L69.6859 30.6044V34.1765H70.3134V29.3879H69.6424ZM113.473 29.3879L111.702 33.3462L109.93 29.3879H109.254V34.1765H109.882V30.5996L111.48 34.1765H111.924L113.517 30.6044V34.1765H114.144V29.3879H113.473ZM2.32731 30.1555L3.20103 32.5932H1.45842L2.33213 30.1555H2.32731ZM1.96527 29.3783L0.222656 34.1765H0.888803L1.27498 33.1049H3.37963L3.76581 34.1765H4.43196L2.69417 29.3783H1.96527ZM19.7486 30.1555L20.6224 32.5932H18.8797L19.7535 30.1555H19.7486ZM19.3866 29.3783L17.644 34.1765H18.3101L18.6963 33.1049H20.801L21.1871 34.1765H21.8533L20.1155 29.3783H19.3914H19.3866ZM75.1841 30.1555L76.0578 32.5932H74.3152L75.1889 30.1555H75.1841ZM74.822 29.3783L73.0794 34.1765H73.7456L74.1317 33.1049H76.2364L76.6226 34.1765H77.2887L75.5509 29.3783H74.822ZM128.94 30.1555L129.813 32.5932H128.071L128.944 30.1555H128.94ZM128.578 29.3783L126.835 34.1765H127.501L127.887 33.1049H129.992L130.378 34.1765H131.044L129.306 29.3783H128.578ZM7.19312 29.3493V34.1717H9.51016V33.66H7.82065V29.3493H7.19312ZM11.8948 29.3493V29.861H13.2174V34.1717H13.845V29.861H15.158V29.3493H11.89H11.8948ZM29.1037 29.8706H30.0305C30.7112 29.8706 31.0539 30.1699 31.0539 30.7637C31.0539 31.0437 30.9718 31.2609 30.8029 31.4154C30.6339 31.5698 30.3781 31.6422 30.0257 31.6422H29.0989V29.8706H29.1037ZM28.4714 29.3493V34.1717H29.1037V32.1587H30.0305C30.5953 32.1587 31.0105 32.0284 31.2856 31.7629C31.5608 31.4974 31.6959 31.1643 31.6959 30.7637C31.6959 30.363 31.5559 30.0106 31.2711 29.7451C30.9863 29.4845 30.5712 29.3493 30.0305 29.3493H28.4714ZM40.6745 29.8706H41.6013C41.9489 29.8706 42.2047 29.9479 42.3737 30.1072C42.5426 30.2616 42.6247 30.4837 42.6247 30.7733C42.6247 31.063 42.5378 31.2802 42.3688 31.4491C42.1999 31.6181 41.944 31.7002 41.6013 31.7002H40.6745V29.8706ZM40.047 29.3493V34.1717H40.6745V32.1974H41.4372L42.5861 34.1717H43.3391L42.1275 32.1491C42.5088 32.067 42.7985 31.8981 42.9867 31.6422C43.1798 31.3864 43.2763 31.0968 43.2763 30.7637C43.2763 30.4934 43.2136 30.2472 43.0881 30.0348C42.9626 29.8224 42.7743 29.6534 42.5233 29.5279C42.2723 29.4024 41.9634 29.3397 41.6013 29.3397H40.0421L40.047 29.3493ZM46.2644 29.3493V34.1717H46.8919V31.9994H48.5959V31.4878H46.8919V29.861H48.9917V29.3493H46.2644ZM59.8384 29.8706H60.7652C61.1128 29.8706 61.3686 29.9479 61.5376 30.1072C61.7065 30.2616 61.7886 30.4837 61.7886 30.7733C61.7886 31.063 61.7017 31.2802 61.5328 31.4491C61.3638 31.6181 61.108 31.7002 60.7652 31.7002H59.8384V29.8706ZM59.2109 29.3493V34.1717H59.8384V32.1974H60.6011L61.75 34.1717H62.503L61.2914 32.1491C61.6728 32.067 61.9624 31.8981 62.1555 31.6422C62.3486 31.3864 62.4451 31.0968 62.4451 30.7637C62.4451 30.4934 62.3824 30.2472 62.2569 30.0348C62.1313 29.8224 61.9431 29.6534 61.6921 29.5279C61.4411 29.4024 61.1321 29.3397 60.7701 29.3397H59.2109V29.3493ZM136.813 29.3493V32.4001C136.813 32.8297 136.707 33.1483 136.499 33.3559C136.287 33.5634 136.002 33.6648 135.63 33.6648C135.258 33.6648 134.964 33.5634 134.756 33.3559C134.549 33.1483 134.443 32.8297 134.443 32.4001V29.3493H133.815V32.3953C133.815 32.7959 133.897 33.1338 134.052 33.409C134.206 33.6841 134.428 33.8869 134.703 34.022C134.978 34.1572 135.287 34.2248 135.625 34.2248C135.963 34.2248 136.277 34.1572 136.547 34.022C136.822 33.8869 137.04 33.6841 137.204 33.409C137.363 33.1338 137.445 32.7959 137.445 32.3953V29.3493H136.818H136.813ZM141.133 29.861H142.007C142.625 29.861 143.098 30.0299 143.431 30.3678C143.759 30.7058 143.923 31.174 143.923 31.7726C143.923 32.3711 143.759 32.8297 143.431 33.1628C143.103 33.491 142.63 33.6552 142.007 33.6552H141.133V29.861ZM140.506 29.3493V34.1717H142.007C142.533 34.1717 142.987 34.0751 143.373 33.8869C143.759 33.6938 144.054 33.4186 144.261 33.0566C144.469 32.6946 144.57 32.2649 144.57 31.7726C144.57 31.2802 144.469 30.8506 144.261 30.4837C144.054 30.1217 143.759 29.8369 143.373 29.6438C142.987 29.4459 142.533 29.3493 142.007 29.3493H140.506ZM34.5005 29.3445V34.1765H37.0975V33.6552H35.1329V31.9946H36.89V31.4733H35.1329V29.861H37.0975V29.3445H34.5005ZM83.231 29.3445V33.1773L80.6967 29.3445H80.0692V34.1765H80.6967V30.3341L83.231 34.1765H83.8633V29.3445H83.231ZM94.2901 29.3445V34.1765H96.8871V33.6552H94.9224V31.9946H96.6795V31.4733H94.9224V29.861H96.8871V29.3445H94.2901ZM103.703 29.3445V34.1765H106.3V33.6552H104.335V31.9946H106.093V31.4733H104.335V29.861H106.3V29.3445H103.703ZM147.404 29.3445V34.1765H150.001V33.6552H148.036V31.9946H149.793V31.4733H148.036V29.861H150.001V29.3445H147.404ZM53.0417 33.4428C52.7714 33.2883 52.559 33.0614 52.4046 32.7718C52.2501 32.4822 52.1729 32.1443 52.1729 31.7629C52.1729 31.3816 52.2501 31.0388 52.4046 30.7492C52.559 30.4596 52.7714 30.2375 53.0369 30.083C53.3024 29.9286 53.6065 29.8465 53.9493 29.8465C54.292 29.8465 54.5961 29.9237 54.8616 30.083C55.1271 30.2423 55.3395 30.4644 55.494 30.7492C55.6484 31.0388 55.7257 31.3767 55.7257 31.7629C55.7257 32.1491 55.6484 32.4822 55.494 32.7718C55.3395 33.0614 55.1271 33.2883 54.8568 33.4428C54.5864 33.6021 54.2823 33.6793 53.9444 33.6793C53.6065 33.6793 53.3072 33.6021 53.0369 33.4428M52.7232 29.61C52.3563 29.8175 52.0618 30.112 51.8494 30.4885C51.637 30.865 51.526 31.2898 51.526 31.7581C51.526 32.2263 51.6322 32.6511 51.8494 33.0276C52.0618 33.4042 52.3563 33.6986 52.7232 33.9062C53.09 34.1186 53.5003 34.2199 53.9493 34.2199C54.3982 34.2199 54.8133 34.1138 55.1802 33.9062C55.5471 33.6986 55.8415 33.4042 56.0539 33.0325C56.2663 32.6608 56.3725 32.2311 56.3725 31.7581C56.3725 31.285 56.2663 30.8602 56.0539 30.4837C55.8415 30.112 55.5519 29.8175 55.1802 29.61C54.8133 29.4024 54.3982 29.2962 53.9493 29.2962C53.5003 29.2962 53.0949 29.4024 52.7232 29.61ZM87.8892 29.61C87.5223 29.8224 87.2327 30.1168 87.0203 30.4934C86.8079 30.8699 86.7017 31.2947 86.7017 31.7629C86.7017 32.2311 86.8079 32.6559 87.0203 33.0276C87.2327 33.3993 87.5223 33.6938 87.8892 33.9014C88.2561 34.1089 88.6616 34.2151 89.1105 34.2151C89.6367 34.2151 90.0952 34.0896 90.4862 33.8386C90.8772 33.5876 91.162 33.2304 91.3455 32.767H90.5924C90.4573 33.0566 90.2642 33.2786 90.0132 33.4331C89.7622 33.5876 89.4629 33.6648 89.1105 33.6648C88.7581 33.6648 88.4733 33.5876 88.203 33.4283C87.9375 33.269 87.7251 33.0469 87.5754 32.7621C87.421 32.4725 87.3486 32.1394 87.3486 31.7532C87.3486 31.3671 87.4258 31.0292 87.5754 30.7396C87.7299 30.4499 87.9375 30.2279 88.203 30.0734C88.4685 29.9189 88.7726 29.8369 89.1105 29.8369C89.4484 29.8369 89.7622 29.9141 90.0132 30.0734C90.2642 30.2327 90.4573 30.4547 90.5924 30.7444H91.3455C91.1669 30.2761 90.8772 29.9189 90.4862 29.6631C90.0952 29.4072 89.6367 29.2817 89.1105 29.2817C88.6616 29.2817 88.2561 29.3879 87.8892 29.6003M121.733 29.4459C121.491 29.5569 121.303 29.7114 121.168 29.9189C121.033 30.1217 120.965 30.3534 120.965 30.6189C120.965 30.9182 121.033 31.1595 121.168 31.3333C121.303 31.5119 121.467 31.6422 121.66 31.7243C121.853 31.8063 122.109 31.8884 122.423 31.9753C122.684 32.0429 122.886 32.1105 123.041 32.1684C123.195 32.2263 123.321 32.318 123.422 32.4339C123.524 32.5497 123.577 32.6994 123.577 32.8828C123.577 33.1193 123.49 33.3124 123.316 33.4621C123.142 33.6117 122.906 33.689 122.606 33.689C122.307 33.689 122.056 33.6117 121.892 33.4572C121.728 33.3028 121.636 33.1097 121.612 32.8876H120.941C120.941 33.1531 121.018 33.38 121.163 33.5828C121.308 33.7855 121.501 33.94 121.757 34.0558C122.008 34.1669 122.293 34.2248 122.611 34.2248C122.93 34.2248 123.234 34.1572 123.475 34.0317C123.721 33.9013 123.905 33.7324 124.03 33.5248C124.156 33.3173 124.219 33.0952 124.219 32.8587C124.219 32.5546 124.151 32.3132 124.011 32.1346C123.871 31.956 123.707 31.8257 123.514 31.7388C123.321 31.6519 123.065 31.565 122.746 31.4781C122.486 31.4057 122.278 31.3381 122.133 31.2802C121.988 31.2223 121.868 31.1402 121.766 31.0292C121.665 30.9181 121.617 30.7733 121.617 30.5996C121.617 30.3534 121.699 30.1651 121.868 30.03C122.032 29.8948 122.249 29.8272 122.51 29.8272C122.79 29.8272 123.017 29.8996 123.186 30.0396C123.355 30.1796 123.451 30.3437 123.475 30.5272H124.166C124.127 30.1555 123.968 29.8513 123.678 29.6293C123.388 29.4024 123.021 29.2914 122.568 29.2914C122.254 29.2914 121.974 29.3493 121.733 29.4555M134.824 28.6252V29.0935L136.296 28.3066V27.7612L134.824 28.6252Z" fill="white"/>
</mask>
<g mask="url(#mask5_844_34)">
<path d="M25.132 -45.3307L-16.8887 27.4512L138.487 117.157L180.507 44.3753L25.132 -45.3307Z" fill="#997D49"/>
<mask id="mask6_844_34" style="mask-type:luminance" maskUnits="userSpaceOnUse" x="-3" y="-39" width="182" height="139">
<g clip-path="url(#clip2_844_34)">
<rect width="181.464" height="137.638" transform="translate(-2.58008 -38.5596)" fill="white"/>
<path d="M37.6657 -37.0878L-2.57617 32.6131L112.55 99.0811L152.792 29.3801L37.6657 -37.0878Z" fill="url(#paint2_linear_844_34)"/>
</g>
</mask>
<g mask="url(#mask6_844_34)">
<mask id="mask7_844_34" style="mask-type:luminance" maskUnits="userSpaceOnUse" x="0" y="-39" width="179" height="123">
<path d="M178.883 -38.5596H0.0546875V83.0807H178.883V-38.5596Z" fill="white"/>
</mask>
<g mask="url(#mask7_844_34)">
<path d="M18.0574 -33.4616L4.05859 -9.2149L159.434 80.4911L173.433 56.2444L18.0574 -33.4616Z" fill="#C5AE67"/>
</g>
</g>
<mask id="mask8_844_34" style="mask-type:luminance" maskUnits="userSpaceOnUse" x="-16" y="-38" width="180" height="148">
<g clip-path="url(#clip3_844_34)">
<rect width="178.828" height="147.031" transform="translate(-15.2305 -37.0872)" fill="white"/>
<path d="M37.6676 -37.0878L-2.57422 32.6131L112.552 99.0811L152.794 29.3801L37.6676 -37.0878Z" fill="url(#paint3_linear_844_34)"/>
</g>
</mask>
<g mask="url(#mask8_844_34)">
<mask id="mask9_844_34" style="mask-type:luminance" maskUnits="userSpaceOnUse" x="-16" y="-12" width="180" height="122">
<path d="M163.598 -11.7009H-15.2305V109.939H163.598V-11.7009Z" fill="white"/>
</mask>
<g mask="url(#mask9_844_34)">
<path d="M4.21955 -9.11127L-9.7793 15.1354L145.596 104.841L159.595 80.5948L4.21955 -9.11127Z" fill="#C5AE67"/>
</g>
</g>
</g>
<defs>
<linearGradient id="paint0_linear_844_34" x1="75.0776" y1="9.57154" x2="91.4755" y2="-18.8306" gradientUnits="userSpaceOnUse">
<stop stop-color="white"/>
<stop offset="1"/>
</linearGradient>
<linearGradient id="paint1_linear_844_34" x1="74.2176" y1="11.5181" x2="57.8197" y2="39.9202" gradientUnits="userSpaceOnUse">
<stop stop-color="white"/>
<stop offset="1"/>
</linearGradient>
<linearGradient id="paint2_linear_844_34" x1="75.2024" y1="36.7589" x2="89.1578" y2="12.5875" gradientUnits="userSpaceOnUse">
<stop stop-color="white"/>
<stop offset="1"/>
</linearGradient>
<linearGradient id="paint3_linear_844_34" x1="79.3527" y1="29.3922" x2="65.3973" y2="53.5636" gradientUnits="userSpaceOnUse">
<stop stop-color="white"/>
<stop offset="1"/>
</linearGradient>
<clipPath id="clip0_844_34">
<rect width="210.654" height="172.973" fill="white" transform="translate(-41.4766 -87.8935)"/>
</clipPath>
<clipPath id="clip1_844_34">
<rect width="218.063" height="150.603" fill="white" transform="translate(-59.1816 -64.5349)"/>
</clipPath>
<clipPath id="clip2_844_34">
<rect width="181.464" height="137.638" fill="white" transform="translate(-2.58008 -38.5596)"/>
</clipPath>
<clipPath id="clip3_844_34">
<rect width="178.828" height="147.031" fill="white" transform="translate(-15.2305 -37.0872)"/>
</clipPath>
</defs>
</svg>
