<svg width="1159" height="179" viewBox="0 0 1159 179" fill="none" xmlns="http://www.w3.org/2000/svg">
<mask id="mask0_991_145" style="mask-type:luminance" maskUnits="userSpaceOnUse" x="197" y="22" width="962" height="133">
<path d="M197.285 22.8043V24.111C201.392 24.111 206.028 23.1776 206.028 28.7466V147.002C206.028 152.571 201.392 151.638 197.285 151.638V152.944H282.251L286.513 127.837H283.713C279.98 149.211 271.829 150.144 263.646 150.144H225.535C222.921 149.957 220.899 149.398 220.899 146.971V28.7155C220.899 23.1465 225.534 24.0799 229.641 24.0799V22.7731H197.285V22.8043ZM414.6 22.8043V24.111C418.707 24.111 423.342 23.1776 423.342 28.7466V103.29C423.342 127.09 405.857 148.464 383.364 148.464C355.674 148.464 343.759 127.65 343.759 103.29V28.7466C343.759 23.1776 348.394 24.111 352.501 24.111V22.8043H320.145V24.111C324.252 24.111 328.887 23.1776 328.887 28.7466V103.29C328.887 136.953 350.634 154.966 379.63 154.966C401.751 154.966 426.111 135.833 426.111 103.29V28.7466C426.111 23.1776 430.747 24.111 434.854 24.111V22.8043H414.6ZM600.896 22.8043L552.735 114.646C550.682 118.006 548.815 118.193 546.42 114.272L498.446 22.8043H475.765V24.111C479.872 24.111 484.508 23.1776 484.508 28.7466V147.002C484.508 152.571 479.872 151.638 475.765 151.638V152.944H496.019V151.638C491.912 151.638 487.277 152.571 487.277 147.002V38.4223C487.277 34.72 489.143 33.7866 490.979 37.1156L542.282 134.526L542.095 134.713H544.895L596.385 36.5556C598.252 33.3822 600.834 34.5022 600.834 38.0489V147.002C600.834 152.571 596.198 151.638 592.092 151.638V152.944H624.448V151.638C620.341 151.638 615.705 152.571 615.705 147.002V28.7466C615.705 23.1776 620.341 24.111 624.448 24.111V22.8043H600.834H600.896ZM669.124 22.8043V24.111C673.231 24.111 677.866 23.1776 677.866 28.7466V147.002C677.866 152.571 673.231 151.638 669.124 151.638V152.944H701.48V151.638C697.373 151.638 692.738 152.571 692.738 147.002V28.7466C692.738 23.1776 697.373 24.111 701.48 24.111V22.8043H669.124ZM846.305 22.8043V24.111C850.38 24.111 855.047 23.1776 855.047 28.7466V133.966L767.841 22.7731H746.094V24.0799C750.201 24.0799 754.837 23.1465 754.837 28.7155V146.971C754.837 152.54 750.201 151.606 746.094 151.606V152.913H766.348V151.606C762.241 151.606 757.606 152.54 757.606 146.971V28.7155L855.016 152.913H857.816V28.7155C857.816 23.1465 862.452 24.0799 866.559 24.0799V22.7731H846.305V22.8043ZM959.707 42.1557L984.627 106.495H935.004L959.738 42.1557H959.707ZM967.142 22.8043L948.538 27.0977V28.031C952.613 28.031 953.92 28.031 955.6 31.1733L958.4 38.4223L916.026 148.682C913.786 152.384 910.084 151.669 906.35 151.669L905.79 152.975H931.457L932.017 151.669C924.582 151.669 917.893 152.602 919.199 147.749L933.884 109.263H985.56L1000.43 147.749C1001.55 152.384 995.049 151.669 987.614 151.669L988.174 152.975H1025.91L1025.35 151.669C1021.62 151.669 1017.92 152.415 1015.68 148.682L967.329 22.8043H967.142ZM1065.11 22.8043V24.111C1069.22 24.111 1073.86 23.1776 1073.86 28.7466V147.002C1073.86 152.571 1069.22 151.638 1065.11 151.638V152.944H1153.78L1158.07 127.837H1155.27C1151.54 149.211 1143.36 150.144 1135.21 150.144H1093.36C1090.75 149.957 1088.73 149.398 1088.73 146.971V84.872C1088.73 82.4453 1090.78 81.8852 1093.36 81.6986H1114.36C1123.67 81.6986 1124.6 86.3342 1124.6 94.1432H1125.9V66.6405H1124.6C1124.6 74.4496 1123.67 78.8985 1114.36 78.8985H1093.36C1090.75 78.7119 1088.73 78.1518 1088.73 75.7251V28.6844C1088.73 26.2577 1090.78 25.6976 1093.36 25.511H1131.47C1139.66 25.511 1147.84 26.4443 1151.54 47.818H1154.34L1150.08 22.7109H1065.11V22.8043Z" fill="white"/>
</mask>
<g mask="url(#mask0_991_145)">
<path d="M109.405 -600.803L-208.805 -49.6475L981.935 637.826L1300.14 86.6707L109.405 -600.803Z" fill="#68655E"/>
<mask id="mask1_991_145" style="mask-type:luminance" maskUnits="userSpaceOnUse" x="-77" y="-544" width="1359" height="1116">
<g clip-path="url(#clip0_991_145)">
<rect width="1357.68" height="1114.82" transform="translate(-76.0039 -543.771)" fill="white"/>
<path d="M437.501 -393.237L140.059 121.949L917.889 571.03L1215.33 55.8442L437.501 -393.237Z" fill="url(#paint0_linear_991_145)"/>
</g>
</mask>
<g mask="url(#mask1_991_145)">
<mask id="mask2_991_145" style="mask-type:luminance" maskUnits="userSpaceOnUse" x="-77" y="-544" width="1359" height="921">
<path d="M1281.68 -543.771H-76.0039V376.854H1281.68V-543.771Z" fill="white"/>
</mask>
<g mask="url(#mask2_991_145)">
<path d="M55.8294 -510.911L-50.168 -327.318L1140.57 360.155L1246.57 176.563L55.8294 -510.911Z" fill="#757575"/>
</g>
</g>
<mask id="mask3_991_145" style="mask-type:luminance" maskUnits="userSpaceOnUse" x="-191" y="-394" width="1407" height="972">
<g clip-path="url(#clip1_991_145)">
<rect width="1405.44" height="970.652" transform="translate(-190.125 -393.219)" fill="white"/>
<path d="M437.482 -393.231L140.039 121.955L917.87 571.036L1215.31 55.85L437.482 -393.231Z" fill="url(#paint1_linear_991_145)"/>
</g>
</mask>
<g mask="url(#mask3_991_145)">
<mask id="mask4_991_145" style="mask-type:luminance" maskUnits="userSpaceOnUse" x="-191" y="-344" width="1359" height="922">
<path d="M1167.56 -343.193H-190.125V577.431H1167.56V-343.193Z" fill="white"/>
</mask>
<g mask="url(#mask4_991_145)">
<path d="M-48.9558 -326.491L-154.953 -142.898L1035.79 544.575L1141.78 360.983L-48.9558 -326.491Z" fill="#757575"/>
</g>
</g>
</g>
<path d="M26.1857 152.65L79.0744 107.652L69.6554 136.416L83.7928 109.092L89.4175 178.837L95.0423 109.092L109.18 136.416L99.7607 107.652L152.649 152.65L107.447 99.5128L136.548 109.047L109.428 95.0166L178.836 89.4185L108.984 83.7849L136.548 69.5231L107.758 78.9509L152.649 26.1867L99.6363 71.2825L109.18 42.1546L95.0245 69.5142L89.4175 7.96695e-05L83.8105 69.5142L69.6554 42.1546L79.1988 71.2825L26.1857 26.1867L71.0771 78.9509L42.2869 69.5231L69.8509 83.7849L-0.000896893 89.4185L69.4066 95.0166L42.2869 109.047L71.3881 99.5128L26.1857 152.65Z" fill="#757575"/>
<defs>
<linearGradient id="paint0_linear_991_145" x1="675.211" y1="84.4015" x2="780.897" y2="-98.6523" gradientUnits="userSpaceOnUse">
<stop stop-color="white"/>
<stop offset="1"/>
</linearGradient>
<linearGradient id="paint1_linear_991_145" x1="669.636" y1="96.9532" x2="563.95" y2="280.007" gradientUnits="userSpaceOnUse">
<stop stop-color="white"/>
<stop offset="1"/>
</linearGradient>
<clipPath id="clip0_991_145">
<rect width="1357.68" height="1114.82" fill="white" transform="translate(-76.0039 -543.771)"/>
</clipPath>
<clipPath id="clip1_991_145">
<rect width="1405.44" height="970.652" fill="white" transform="translate(-190.125 -393.219)"/>
</clipPath>
</defs>
</svg>
